{
.appVersion = "3133";
.formatVersion = 3;
customParameters = (
{
name = vendorID;
value = XXXX;
},
{
name = panose;
value = (
0,
0,
5,
0,
0,
0,
0,
0,
0,
0
);
},
{
name = unicodeRanges;
value = (
0
);
},
{
name = codePageRanges;
value = (
"1252"
);
},
{
name = blueScale;
value = 0.037;
},
{
name = glyphOrder;
value = (
.notdef,
A,
B,
C,
D,
E,
F,
G,
H,
I,
J,
K,
L,
M,
N,
O,
P,
Q,
R,
S,
T,
U,
V,
W,
X,
Y,
Z,
zero,
one,
two,
three,
four,
five,
six,
seven,
eight,
nine,
space,
uni00A0,
CR
);
}
);
date = "2017-03-01 08:48:15 +0000";
familyName = Squinch;
fontMaster = (
{
customParameters = (
{
name = typoAscender;
value = 800;
},
{
name = typoDescender;
value = -200;
},
{
name = typoLineGap;
value = 200;
},
{
name = winAscent;
value = 1000;
},
{
name = winDescent;
value = 200;
},
{
name = hheaAscender;
value = 1000;
},
{
name = hheaDescender;
value = -200;
},
{
name = strikeoutPosition;
value = 240;
},
{
name = strikeoutSize;
value = 50;
}
);
id = m01;
metricValues = (
{
pos = 800;
},
{
pos = 837;
},
{
pos = 400;
},
{
},
{
pos = -200;
},
{
}
);
name = Hand;
}
);
glyphs = (
{
glyphname = A;
layers = (
{
layerId = m01;
shapes = (
{
closed = 1;
nodes = (
(683,0,o),
(739,16,o),
(796,48,cs),
(887,99,o),
(921,174,o),
(942,241,cs),
(950,266,l),
(924,265,ls),
(906,265,o),
(865,263,o),
(854,282,cs),
(842,302,o),
(857,422,o),
(867,509,cs),
(885,650,o),
(895,739,o),
(875,769,cs),
(831,834,o),
(389,861,o),
(268,787,cs),
(261,782,l),
(260,773,ls),
(259,769,o),
(260,762,o),
(261,747,cs),
(263,717,o),
(267,662,o),
(260,638,cs),
(254,619,o),
(220,579,o),
(184,537,cs),
(109,450,o),
(16,341,o),
(8,243,cs),
(0,148,o),
(35,93,o),
(66,64,cs),
(111,22,o),
(172,9,o),
(211,15,cs),
(264,22,o),
(329,53,o),
(415,223,c),
(436,236,o),
(467,248,o),
(495,254,c),
(471,162,o),
(464,91,o),
(524,37,cs),
(552,12,o),
(590,0,o),
(633,0,cs)
);
},
{
closed = 1;
nodes = (
(582,297,l),
(519,294,ls),
(478,292,o),
(423,274,o),
(390,251,c),
(386,249,l),
(384,244,ls),
(305,86,o),
(250,58,o),
(206,51,cs),
(176,47,o),
(127,57,o),
(92,91,cs),
(55,125,o),
(39,175,o),
(45,239,cs),
(52,326,o),
(145,434,o),
(212,513,cs),
(256,564,o),
(287,601,o),
(295,628,cs),
(304,658,o),
(300,715,o),
(298,749,c),
(297,753,o),
(297,757,o),
(297,761,c),
(422,823,o),
(817,785,o),
(844,749,cs),
(858,728,o),
(841,599,o),
(831,513,cs),
(814,377,o),
(804,293,o),
(822,263,cs),
(838,236,o),
(872,229,o),
(898,228,c),
(878,173,o),
(847,119,o),
(778,80,cs),
(687,29,o),
(595,23,o),
(548,65,cs),
(502,106,o),
(507,160,o),
(538,271,c)
);
},
{
closed = 1;
nodes = (
(330,304,o),
(496,327,o),
(535,329,cs),
(549,330,l),
(552,343,l),
(555,357,ls),
(562,387,o),
(574,444,o),
(596,494,cs),
(623,558,l),
(567,516,ls),
(496,461,o),
(432,370,o),
(412,339,c),
(377,328,o),
(346,315,o),
(330,304,c)
);
},
{
closed = 1;
nodes = (
(529,409,o),
(523,383,o),
(519,365,c),
(505,363,o),
(487,359,o),
(468,354,c),
(488,382,o),
(512,412,o),
(537,438,c)
);
}
);
width = 1000;
}
);
note = A;
unicode = 65;
},
{
glyphname = B;
layers = (
{
layerId = m01;
shapes = (
{
closed = 1;
nodes = (
(480,0,o),
(593,21,o),
(671,57,cs),
(770,103,o),
(815,201,o),
(815,256,cs),
(816,329,o),
(756,381,o),
(719,405,c),
(768,439,o),
(802,486,o),
(814,539,cs),
(827,595,o),
(815,653,o),
(779,702,cs),
(667,858,o),
(323,859,o),
(136,791,cs),
(115,784,l),
(126,765,ls),
(148,724,o),
(154,674,o),
(150,653,c),
(136,628,o),
(87,521,o),
(52,407,cs),
(1,241,o),
(0,133,o),
(49,85,cs),
(99,35,o),
(203,4,o),
(336,0,cs),
(364,0,ls)
);
},
{
closed = 1;
nodes = (
(345,819,o),
(653,815,o),
(749,681,cs),
(779,640,o),
(789,594,o),
(778,548,cs),
(766,496,o),
(728,450,o),
(675,421,cs),
(641,403,l),
(676,388,ls),
(696,379,o),
(779,327,o),
(778,256,cs),
(778,212,o),
(739,129,o),
(656,91,cs),
(485,11,o),
(164,22,o),
(75,111,cs),
(38,147,o),
(42,248,o),
(87,394,cs),
(124,516,o),
(176,625,o),
(183,635,cs),
(185,638,l),
(186,641,ls),
(193,668,o),
(187,718,o),
(168,763,c)
);
},
{
closed = 1;
nodes = (
(320,264,o),
(297,270,o),
(288,281,c),
(286,267,o),
(308,225,o),
(358,226,cs),
(379,226,o),
(400,228,o),
(417,232,cs),
(458,242,o),
(481,261,o),
(484,285,cs),
(488,329,o),
(456,361,o),
(418,373,c),
(426,396,o),
(434,419,o),
(442,440,c),
(476,443,o),
(544,454,o),
(545,510,cs),
(545,523,o),
(539,534,o),
(527,542,cs),
(449,594,o),
(373,509,o),
(373,509,c),
(383,513,o),
(409,519,o),
(435,521,c),
(401,449,o),
(362,326,o),
(349,263,c)
);
},
{
closed = 1;
nodes = (
(492,521,o),
(504,517,o),
(508,511,c),
(508,493,o),
(484,484,o),
(457,480,c),
(464,496,o),
(471,510,o),
(477,522,c)
);
},
{
closed = 1;
nodes = (
(430,330,o),
(449,313,o),
(447,289,cs),
(446,284,o),
(436,275,o),
(409,268,cs),
(387,264,l),
(392,285,o),
(399,310,o),
(407,338,c)
);
}
);
width = 877;
}
);
note = B;
unicode = 66;
},
{
glyphname = C;
layers = (
{
layerId = m01;
shapes = (
{
closed = 1;
nodes = (
(595,0,o),
(825,101,o),
(847,381,cs),
(848,397,l),
(832,400,ls),
(730,421,o),
(635,389,o),
(599,374,cs),
(568,361,o),
(542,339,o),
(518,320,cs),
(498,304,o),
(479,288,o),
(463,284,cs),
(446,279,o),
(422,279,o),
(408,291,cs),
(394,305,o),
(395,331,o),
(398,350,cs),
(406,392,o),
(500,420,o),
(590,447,cs),
(686,476,o),
(785,506,o),
(830,562,cs),
(897,644,o),
(928,736,o),
(916,815,cs),
(912,840,l),
(890,829,ls),
(863,816,o),
(771,795,o),
(718,800,cs),
(694,803,ls),
(619,813,o),
(445,835,o),
(289,752,cs),
(101,651,o),
(0,387,o),
(81,209,cs),
(140,80,o),
(267,6,o),
(437,0,cs),
(448,0,ls)
);
},
{
closed = 1;
nodes = (
(310,301,o),
(333,326,o),
(361,348,c),
(356,310,o),
(363,282,o),
(383,264,cs),
(404,245,o),
(438,239,o),
(473,248,cs),
(497,255,o),
(519,273,o),
(542,292,cs),
(564,310,o),
(587,329,o),
(614,340,cs),
(644,353,o),
(723,379,o),
(808,367,c),
(780,119,o),
(568,33,o),
(439,37,cs),
(283,42,o),
(168,109,o),
(115,224,cs),
(35,399,o),
(155,638,o),
(307,719,cs),
(391,765,o),
(481,777,o),
(556,777,cs),
(610,777,o),
(657,771,o),
(689,766,cs),
(714,763,ls),
(763,759,o),
(837,772,o),
(881,786,c),
(883,723,o),
(854,650,o),
(802,585,cs),
(764,538,o),
(666,509,o),
(579,483,cs),
(545,472,o),
(512,462,o),
(483,452,c),
(483,453,l),
(342,419,o),
(288,332,o),
(300,277,c)
);
}
);
width = 978;
}
);
note = C;
unicode = 67;
},
{
glyphname = D;
layers = (
{
layerId = m01;
shapes = (
{
closed = 1;
nodes = (
(499,0,o),
(663,71,o),
(784,192,cs),
(893,300,o),
(948,429,o),
(938,555,cs),
(932,630,o),
(891,691,o),
(817,736,cs),
(630,850,o),
(284,825,o),
(165,775,cs),
(141,764,l),
(159,745,ls),
(193,708,o),
(208,676,o),
(202,651,cs),
(199,637,o),
(182,606,o),
(163,570,cs),
(102,456,o),
(0,266,o),
(54,140,cs),
(106,18,o),
(237,7,o),
(307,2,cs),
(320,1,o),
(333,0,o),
(346,0,cs)
);
},
{
closed = 1;
nodes = (
(336,792,o),
(638,802,o),
(798,705,cs),
(861,666,o),
(896,615,o),
(901,552,cs),
(910,437,o),
(859,319,o),
(758,218,cs),
(634,95,o),
(463,26,o),
(310,38,cs),
(224,46,o),
(128,61,o),
(88,154,cs),
(41,265,o),
(137,445,o),
(195,553,cs),
(217,594,o),
(233,624,o),
(238,643,cs),
(246,675,o),
(234,711,o),
(204,749,c)
);
},
{
closed = 1;
nodes = (
(441,247,o),
(464,253,o),
(486,265,cs),
(523,285,o),
(551,321,o),
(558,359,cs),
(563,386,o),
(557,410,o),
(540,428,cs),
(525,445,o),
(493,464,o),
(429,458,c),
(403,449,o),
(385,436,o),
(372,422,c),
(388,423,o),
(413,423,o),
(437,421,c),
(417,377,o),
(398,327,o),
(391,291,c),
(372,292,o),
(353,296,o),
(337,302,c),
(338,282,o),
(346,267,o),
(360,258,c),
(379,250,o),
(398,247,o),
(417,247,cs)
);
},
{
closed = 1;
nodes = (
(494,413,o),
(508,409,o),
(513,403,cs),
(521,394,o),
(524,381,o),
(521,366,cs),
(516,339,o),
(496,312,o),
(468,297,cs),
(460,293,o),
(446,290,o),
(429,289,c),
(436,324,o),
(456,375,o),
(476,416,c)
);
}
);
width = 998;
}
);
note = D;
unicode = 68;
},
{
glyphname = E;
layers = (
{
layerId = m01;
shapes = (
{
closed = 1;
nodes = (
(713,0,o),
(830,288,o),
(869,385,cs),
(877,407,l),
(865,415,ls),
(829,438,o),
(721,462,o),
(630,426,cs),
(592,410,o),
(560,388,o),
(531,368,cs),
(496,343,o),
(466,322,o),
(444,328,cs),
(431,331,o),
(422,339,o),
(415,351,c),
(415,351,o),
(415,352,o),
(414,353,c),
(480,365,o),
(579,431,o),
(594,488,cs),
(597,501,l),
(587,508,ls),
(564,523,o),
(519,525,o),
(480,523,c),
(519,544,o),
(572,550,o),
(622,544,c),
(624,528,o),
(630,503,o),
(646,487,cs),
(653,480,l),
(662,481,ls),
(808,498,o),
(995,663,o),
(1019,796,cs),
(1023,823,l),
(997,817,ls),
(907,799,o),
(789,809,o),
(665,820,cs),
(493,834,o),
(315,849,o),
(170,797,cs),
(148,789,l),
(161,769,ls),
(208,696,o),
(114,500,o),
(74,416,cs),
(64,395,o),
(57,381,o),
(54,372,c),
(54,371,o),
(0,219,o),
(75,107,cs),
(119,41,o),
(197,5,o),
(307,1,cs),
(318,0,o),
(329,0,o),
(339,0,cs)
);
},
{
closed = 1;
nodes = (
(527,444,o),
(450,394,o),
(403,388,c),
(400,404,o),
(399,420,o),
(401,434,c),
(401,434,o),
(354,375,o),
(383,333,cs),
(396,314,o),
(412,298,o),
(435,292,cs),
(473,282,o),
(510,308,o),
(552,337,cs),
(579,356,o),
(610,378,o),
(644,391,cs),
(714,419,o),
(795,405,o),
(831,391,c),
(787,282,o),
(673,22,o),
(309,38,cs),
(211,42,o),
(143,72,o),
(106,128,cs),
(52,208,o),
(75,322,o),
(89,360,cs),
(91,367,o),
(98,381,o),
(107,400,cs),
(150,490,o),
(237,671,o),
(202,768,c),
(336,810,o),
(501,796,o),
(661,783,cs),
(776,773,o),
(885,764,o),
(975,776,c),
(937,668,o),
(785,539,o),
(668,520,c),
(647,549,o),
(662,620,o),
(662,620,c),
(649,607,o),
(638,592,o),
(633,576,c),
(541,595,o),
(430,539,o),
(385,475,c),
(437,486,ls),
(476,492,o),
(525,489,o),
(552,483,c)
);
}
);
width = 1073;
}
);
note = E;
unicode = 69;
},
{
glyphname = F;
layers = (
{
layerId = m01;
shapes = (
{
closed = 1;
nodes = (
(390,0,o),
(493,88,o),
(582,290,cs),
(618,370,o),
(730,350,o),
(732,344,c),
(732,344,o),
(722,481,o),
(578,466,c),
(585,470,o),
(609,504,o),
(679,470,cs),
(727,446,o),
(792,428,o),
(862,451,cs),
(1015,499,o),
(1088,674,o),
(1098,799,c),
(1074,792,ls),
(1032,778,o),
(942,789,o),
(846,800,cs),
(686,819,o),
(487,843,o),
(372,774,cs),
(254,704,o),
(218,559,o),
(190,443,cs),
(174,378,o),
(159,317,o),
(133,294,cs),
(88,253,o),
(25,256,o),
(24,256,cs),
(6,257,l),
(4,239,ls),
(0,184,o),
(20,129,o),
(61,85,cs),
(110,32,o),
(183,0,o),
(258,0,cs)
);
},
{
closed = 1;
nodes = (
(522,389,o),
(542,407,o),
(559,435,c),
(597,445,o),
(630,443,o),
(654,427,cs),
(669,418,o),
(687,398,o),
(693,382,c),
(651,386,o),
(578,369,o),
(549,306,cs),
(463,117,o),
(376,37,o),
(258,37,cs),
(194,37,o),
(130,64,o),
(88,110,cs),
(59,142,o),
(42,180,o),
(41,219,c),
(68,221,o),
(118,230,o),
(158,266,cs),
(192,297,o),
(208,360,o),
(226,434,cs),
(253,543,o),
(286,680,o),
(391,742,cs),
(495,804,o),
(687,782,o),
(842,763,cs),
(929,753,o),
(1007,744,o),
(1059,751,c),
(1039,627,o),
(939,513,o),
(851,486,cs),
(793,468,o),
(739,487,o),
(691,504,cs),
(659,516,o),
(630,526,o),
(606,522,cs),
(582,518,o),
(516,493,o),
(502,375,c)
);
}
);
width = 1148;
}
);
note = F;
unicode = 70;
},
{
glyphname = G;
layers = (
{
layerId = m01;
shapes = (
{
closed = 1;
nodes = (
(474,0,o),
(630,36,o),
(725,215,c),
(744,206,o),
(770,194,o),
(784,184,cs),
(795,175,l),
(806,184,ls),
(889,250,o),
(933,373,o),
(927,449,cs),
(926,462,l),
(913,466,ls),
(794,495,o),
(664,472,o),
(549,452,cs),
(490,442,o),
(434,432,o),
(388,431,c),
(396,444,o),
(406,458,o),
(418,473,c),
(443,474,o),
(466,474,o),
(486,474,cs),
(548,473,o),
(613,472,o),
(666,492,cs),
(793,540,o),
(860,621,o),
(891,762,cs),
(894,776,l),
(881,782,ls),
(787,826,o),
(650,815,o),
(504,803,cs),
(398,794,o),
(288,785,o),
(181,795,cs),
(160,796,l),
(160,776,ls),
(160,764,o),
(161,750,o),
(162,735,cs),
(163,703,o),
(165,667,o),
(161,640,c),
(158,635,o),
(150,621,o),
(142,609,cs),
(96,536,o),
(0,383,o),
(36,261,cs),
(82,107,o),
(181,15,o),
(315,2,cs),
(330,1,o),
(346,0,o),
(364,0,cs)
);
},
{
closed = 1;
nodes = (
(347,263,o),
(372,246,o),
(396,246,cs),
(401,246,ls),
(421,248,o),
(462,267,o),
(469,307,c),
(483,308,o),
(501,312,o),
(507,321,c),
(507,321,o),
(384,365,o),
(363,376,c),
(364,381,o),
(366,387,o),
(369,394,c),
(422,392,o),
(487,404,o),
(555,416,cs),
(662,434,o),
(783,456,o),
(891,433,c),
(890,370,o),
(853,275,o),
(793,222,c),
(766,238,o),
(725,255,o),
(724,256,c),
(666,284,l),
(669,269,o),
(686,247,o),
(696,241,c),
(602,48,o),
(440,27,o),
(318,39,cs),
(167,54,o),
(101,174,o),
(72,272,cs),
(40,377,o),
(130,521,o),
(174,589,cs),
(187,611,o),
(194,621,o),
(196,629,cs),
(197,632,l),
(202,664,o),
(200,702,o),
(199,736,cs),
(198,743,o),
(198,750,o),
(198,756,c),
(301,749,o),
(406,758,o),
(507,766,cs),
(640,777,o),
(766,787,o),
(851,755,c),
(822,637,o),
(762,568,o),
(653,527,cs),
(606,509,o),
(545,510,o),
(486,511,cs),
(429,512,o),
(359,506,o),
(339,494,cs),
(319,482,o),
(307,457,o),
(307,457,c),
(322,462,o),
(344,466,o),
(369,469,c),
(303,376,o),
(321,314,o),
(334,290,cs)
);
},
{
closed = 1;
nodes = (
(382,327,o),
(411,320,o),
(432,315,c),
(431,310,o),
(428,305,o),
(425,300,cs),
(418,290,o),
(407,283,o),
(397,283,cs),
(388,282,o),
(375,290,o),
(366,306,c),
(364,312,o),
(360,322,o),
(359,337,c)
);
}
);
width = 983;
}
);
note = G;
unicode = 71;
},
{
glyphname = H;
layers = (
{
layerId = m01;
shapes = (
{
closed = 1;
nodes = (
(703,8,o),
(759,23,o),
(814,53,cs),
(903,101,o),
(975,177,o),
(989,238,cs),
(994,261,l),
(971,261,ls),
(921,261,o),
(891,269,o),
(891,284,cs),
(892,300,o),
(932,416,o),
(961,500,cs),
(991,586,o),
(1019,667,o),
(1027,699,cs),
(1038,747,o),
(1011,786,o),
(951,807,cs),
(870,836,o),
(725,827,o),
(690,755,cs),
(673,719,o),
(638,622,o),
(608,536,cs),
(592,492,o),
(583,465,o),
(575,443,c),
(537,442,o),
(494,431,o),
(456,417,c),
(499,518,o),
(581,737,o),
(509,787,cs),
(438,838,o),
(358,833,o),
(302,820,cs),
(224,801,o),
(154,757,o),
(137,727,cs),
(130,713,l),
(142,703,ls),
(160,689,o),
(180,669,o),
(177,650,cs),
(175,643,o),
(157,594,o),
(139,542,cs),
(71,352,o),
(10,179,o),
(6,145,cs),
(0,82,o),
(32,34,o),
(95,12,cs),
(117,4,o),
(143,0,o),
(169,0,cs),
(229,0,o),
(292,21,o),
(319,63,cs),
(346,106,o),
(364,164,o),
(384,225,c),
(386,234,o),
(389,242,o),
(392,251,c),
(434,262,o),
(474,264,o),
(511,265,c),
(489,205,o),
(487,139,o),
(506,91,cs),
(520,58,o),
(543,34,o),
(575,22,cs),
(599,12,o),
(625,8,o),
(653,8,cs)
);
},
{
closed = 1;
nodes = (
(261,42,o),
(172,24,o),
(107,47,cs),
(75,58,o),
(37,84,o),
(43,141,cs),
(47,174,o),
(129,405,o),
(174,530,cs),
(204,614,o),
(212,636,o),
(213,642,cs),
(218,669,o),
(207,695,o),
(180,720,c),
(200,740,o),
(250,770,o),
(311,784,cs),
(359,795,o),
(428,800,o),
(488,757,cs),
(527,730,o),
(476,549,o),
(407,396,c),
(380,383,o),
(360,370,o),
(353,362,cs),
(336,340,o),
(321,312,o),
(321,312,c),
(345,338,o),
(389,361,o),
(436,378,c),
(439,377,l),
(439,378,o),
(439,379,o),
(440,380,c),
(503,403,o),
(570,417,o),
(603,414,c),
(603,414,o),
(622,465,o),
(643,524,cs),
(671,604,o),
(707,704,o),
(724,739,cs),
(744,782,o),
(861,800,o),
(939,773,cs),
(967,762,o),
(999,743,o),
(991,708,cs),
(983,678,o),
(954,594,o),
(926,512,cs),
(876,367,o),
(854,301,o),
(854,284,cs),
(854,237,o),
(908,227,o),
(945,224,c),
(923,177,o),
(865,122,o),
(797,86,cs),
(752,62,o),
(666,26,o),
(588,56,cs),
(566,65,o),
(550,81,o),
(541,105,cs),
(523,150,o),
(529,219,o),
(556,276,c),
(590,337,l),
(539,303,l),
(457,303,o),
(392,302,o),
(326,255,c),
(284,201,l),
(306,216,o),
(328,227,o),
(348,236,c),
(330,177,o),
(312,121,o),
(288,83,cs)
);
}
);
width = 1088;
}
);
note = H;
unicode = 72;
},
{
glyphname = I;
layers = (
{
layerId = m01;
shapes = (
{
closed = 1;
nodes = (
(254,839,o),
(177,796,o),
(153,707,cs),
(145,678,o),
(145,653,o),
(154,634,c),
(118,621,o),
(78,595,o),
(58,574,c),
(101,558,o),
(107,512,o),
(93,473,cs),
(91,469,o),
(64,383,o),
(51,350,cs),
(-29,146,o),
(-19,181,o),
(-23,143,cs),
(-29,79,o),
(19,31,o),
(109,10,cs),
(138,3,o),
(170,0,o),
(202,0,cs),
(301,0,o),
(533,52,o),
(574,176,c),
(540,175,o),
(417,214,o),
(426,261,cs),
(435,307,o),
(482,418,o),
(513,509,cs),
(528,554,o),
(510,583,o),
(492,601,c),
(505,618,o),
(545,684,o),
(551,707,cs),
(575,796,o),
(522,839,o),
(388,839,cs)
);
},
{
closed = 1;
nodes = (
(154,656,o),
(156,676,o),
(161,691,cs),
(175,741,o),
(197,792,o),
(364,806,cs),
(545,821,o),
(529,719,o),
(480,612,c),
(479,611,l),
(408,663,o),
(259,661,o),
(169,638,cs),
(157,635,l)
);
},
{
closed = 1;
nodes = (
(443,430,o),
(414,356,o),
(384,274,cs),
(353,193,o),
(490,147,o),
(527,156,c),
(500,104,o),
(227,22,o),
(118,47,cs),
(79,56,o),
(13,80,o),
(18,140,cs),
(22,178,o),
(138,477,o),
(139,481,cs),
(157,537,o),
(131,559,o),
(114,574,c),
(205,656,o),
(425,617,o),
(463,575,cs),
(476,559,o),
(481,543,o),
(474,521,cs)
);
}
);
width = 625;
}
);
note = I;
unicode = 73;
},
{
glyphname = J;
layers = (
{
layerId = m01;
shapes = (
{
closed = 1;
nodes = (
(525,0,o),
(651,75,o),
(724,224,cs),
(746,270,o),
(770,349,o),
(795,432,cs),
(835,566,o),
(881,718,o),
(932,771,cs),
(948,787,l),
(929,799,ls),
(839,854,o),
(527,845,o),
(475,808,cs),
(461,798,l),
(471,783,l),
(471,783,o),
(505,730,o),
(500,683,cs),
(496,650,o),
(405,427,o),
(342,278,c),
(324,279,o),
(308,285,o),
(299,292,cs),
(280,306,o),
(270,325,o),
(269,349,cs),
(266,393,o),
(296,441,o),
(326,469,cs),
(357,499,l),
(314,501,ls),
(153,508,o),
(-17,449,o),
(-36,299,cs),
(-43,241,o),
(-23,179,o),
(19,127,cs),
(60,77,o),
(140,14,o),
(292,2,cs),
(311,1,o),
(329,0,o),
(347,0,cs)
);
},
{
closed = 1;
nodes = (
(249,432,o),
(230,390,o),
(232,347,cs),
(233,313,o),
(249,284,o),
(276,263,cs),
(299,244,o),
(334,237,o),
(367,244,cs),
(399,250,o),
(444,282,o),
(467,332,c),
(467,332,o),
(400,283,o),
(382,284,c),
(424,383,o),
(532,637,o),
(536,679,cs),
(541,720,o),
(524,762,o),
(512,785,c),
(579,805,o),
(799,812,o),
(890,777,c),
(840,708,o),
(797,568,o),
(760,442,cs),
(735,361,o),
(712,284,o),
(691,240,cs),
(618,92,o),
(485,24,o),
(295,39,cs),
(156,50,o),
(84,106,o),
(47,151,cs),
(13,193,o),
(-5,247,o),
(1,294,cs),
(15,409,o),
(142,461,o),
(272,464,c)
);
}
);
width = 998;
}
);
note = J;
unicode = 74;
},
{
glyphname = K;
layers = (
{
layerId = m01;
shapes = (
{
closed = 1;
nodes = (
(865,20,o),
(1021,211,o),
(1041,353,c),
(990,325,o),
(904,310,o),
(879,314,cs),
(861,317,o),
(807,359,o),
(762,396,c),
(892,471,o),
(1043,611,o),
(1062,697,cs),
(1066,719,o),
(1063,737,o),
(1052,752,cs),
(993,829,o),
(764,813,o),
(668,775,cs),
(643,766,l),
(661,746,ls),
(695,707,o),
(695,705,o),
(690,673,cs),
(685,643,o),
(638,577,o),
(496,507,c),
(520,571,o),
(546,642,o),
(561,686,cs),
(575,729,o),
(560,758,o),
(544,775,cs),
(488,835,o),
(339,836,o),
(254,811,cs),
(215,800,o),
(174,775,o),
(155,759,c),
(169,736,l),
(181,708,o),
(193,680,o),
(177,625,c),
(154,563,ls),
(80,367,o),
(10,180,o),
(7,144,cs),
(0,81,o),
(46,31,o),
(128,10,cs),
(155,3,o),
(184,0,o),
(214,0,cs),
(298,0,o),
(382,28,o),
(404,84,cs),
(407,91,l),
(404,98,l),
(398,112,ls),
(383,147,o),
(373,172,o),
(386,209,cs),
(389,219,o),
(398,241,o),
(407,264,cs),
(410,273,l),
(536,98,o),
(637,20,o),
(724,20,cs)
);
},
{
closed = 1;
nodes = (
(363,255,o),
(354,231,o),
(351,221,cs),
(333,171,o),
(348,135,o),
(364,98,cs),
(367,91,l),
(340,46,o),
(228,23,o),
(137,46,cs),
(100,56,o),
(37,80,o),
(43,140,cs),
(47,177,o),
(150,448,o),
(188,550,cs),
(206,596,o),
(211,611,o),
(212,614,cs),
(232,679,o),
(218,716,o),
(205,746,c),
(211,753,o),
(227,766,o),
(264,776,cs),
(350,799,o),
(476,793,o),
(517,750,cs),
(530,736,o),
(533,719,o),
(526,698,cs),
(508,645,o),
(474,555,o),
(447,482,cs),
(420,411,l),
(420,411,o),
(446,421,o),
(460,437,cs),
(465,444,o),
(470,450,o),
(473,455,c),
(692,554,o),
(722,642,o),
(726,667,cs),
(732,705,o),
(730,720,o),
(706,749,c),
(807,778,o),
(984,780,o),
(1023,730,c),
(1024,727,o),
(1029,721,o),
(1025,704,cs),
(1010,633,o),
(868,497,o),
(732,422,c),
(693,456,l),
(689,450,o),
(695,431,o),
(699,423,cs),
(713,394,o),
(824,286,o),
(873,278,cs),
(902,273,o),
(946,278,o),
(989,290,c),
(958,212,o),
(827,57,o),
(724,57,cs),
(669,57,o),
(565,114,o),
(403,350,c),
(389,320,l),
(388,319,o),
(387,316,o),
(386,314,cs),
(384,310,l),
(385,309,l),
(381,300,o),
(377,289,o),
(372,277,cs)
);
}
);
width = 1116;
}
);
note = K;
unicode = 75;
},
{
glyphname = L;
layers = (
{
layerId = m01;
shapes = (
{
closed = 1;
nodes = (
(472,0,o),
(541,6,o),
(606,28,cs),
(710,62,o),
(776,128,o),
(796,218,cs),
(823,340,o),
(660,433,o),
(581,456,cs),
(547,467,l),
(558,433,ls),
(569,401,o),
(570,348,o),
(548,305,cs),
(536,281,o),
(518,265,o),
(495,257,cs),
(474,251,o),
(436,248,o),
(401,252,c),
(384,304,o),
(431,389,o),
(476,472,cs),
(524,560,o),
(569,644,o),
(556,710,cs),
(549,744,o),
(530,771,o),
(500,791,cs),
(417,844,o),
(264,832,o),
(148,804,cs),
(126,799,l),
(136,779,ls),
(139,773,o),
(141,767,o),
(144,762,cs),
(161,728,o),
(173,703,o),
(164,670,cs),
(161,661,o),
(150,636,o),
(137,608,cs),
(89,504,o),
(0,310,o),
(26,198,cs),
(56,63,o),
(201,19,o),
(318,6,cs),
(342,3,o),
(376,0,o),
(414,0,cs)
);
},
{
closed = 1;
nodes = (
(287,796,o),
(416,800,o),
(480,760,cs),
(502,745,o),
(515,727,o),
(520,703,cs),
(530,650,o),
(486,568,o),
(443,489,cs),
(397,405,o),
(354,325,o),
(362,261,c),
(345,261,o),
(285,293,o),
(285,293,c),
(317,202,o),
(446,204,o),
(506,222,cs),
(538,232,o),
(564,255,o),
(581,289,cs),
(601,328,o),
(605,373,o),
(601,410,c),
(676,378,o),
(778,305,o),
(760,226,cs),
(735,116,o),
(607,10,o),
(322,42,cs),
(170,60,o),
(82,115,o),
(62,206,cs),
(39,306,o),
(125,492,o),
(171,592,cs),
(186,626,o),
(196,648,o),
(200,660,cs),
(212,705,o),
(197,739,o),
(179,774,c)
);
}
);
width = 873;
}
);
note = L;
unicode = 76;
},
{
glyphname = M;
layers = (
{
layerId = m01;
shapes = (
{
closed = 1;
nodes = (
(966,0,o),
(1095,36,o),
(1142,222,cs),
(1228,557,o),
(1299,676,o),
(1343,718,cs),
(1357,730,l),
(1344,744,ls),
(1268,823,o),
(1104,858,o),
(991,818,cs),
(936,799,o),
(880,742,o),
(821,681,cs),
(769,628,o),
(716,580,o),
(659,548,c),
(629,651,o),
(565,729,o),
(478,767,cs),
(390,806,o),
(289,801,o),
(208,754,cs),
(186,741,l),
(204,724,ls),
(250,682,o),
(257,663,o),
(262,640,c),
(261,604,o),
(136,295,o),
(117,270,cs),
(98,248,o),
(56,239,o),
(23,239,cs),
(0,239,l),
(5,216,ls),
(37,78,o),
(110,5,o),
(217,5,cs),
(348,5,o),
(430,95,o),
(463,178,cs),
(483,230,o),
(511,323,o),
(526,375,c),
(540,344,o),
(552,308,o),
(561,270,cs),
(565,247,l),
(587,257,ls),
(685,304,o),
(778,371,o),
(855,449,c),
(836,385,o),
(799,306,o),
(767,267,cs),
(728,216,o),
(661,228,o),
(658,229,cs),
(634,234,l),
(636,209,ls),
(648,97,o),
(730,12,o),
(837,2,cs),
(848,1,o),
(860,0,o),
(873,0,cs)
);
},
{
closed = 1;
nodes = (
(400,119,o),
(329,42,o),
(217,42,cs),
(134,42,o),
(76,96,o),
(47,203,c),
(83,207,o),
(122,219,o),
(145,246,cs),
(157,261,o),
(307,605,o),
(298,646,cs),
(292,675,o),
(282,698,o),
(248,733,c),
(315,763,o),
(394,764,o),
(463,734,cs),
(542,699,o),
(599,627,o),
(626,531,c),
(625,531,l),
(629,518,l),
(630,511,l),
(631,511,l),
(638,487,l),
(716,521,o),
(783,589,o),
(848,656,cs),
(903,713,o),
(956,767,o),
(1004,784,cs),
(1096,816,o),
(1234,791,o),
(1305,731,c),
(1239,657,o),
(1172,489,o),
(1107,231,cs),
(1062,55,o),
(937,29,o),
(841,39,cs),
(759,47,o),
(694,108,o),
(677,190,c),
(708,190,o),
(760,197,o),
(796,244,cs),
(846,307,o),
(912,489,o),
(911,559,c),
(896,548,o),
(881,534,o),
(866,516,cs),
(792,429,o),
(695,353,o),
(591,301,c),
(572,431,o),
(505,467,o),
(465,472,c),
(475,462,o),
(487,445,o),
(500,423,c),
(487,377,o),
(451,250,o),
(428,192,cs)
);
}
);
width = 1407;
}
);
note = M;
unicode = 77;
},
{
glyphname = N;
layers = (
{
layerId = m01;
shapes = (
{
closed = 1;
nodes = (
(955,0,o),
(1002,227,o),
(1025,335,cs),
(1029,358,o),
(1033,377,o),
(1037,387,cs),
(1041,398,o),
(1045,413,o),
(1051,430,cs),
(1075,511,o),
(1116,645,o),
(1197,673,cs),
(1224,683,l),
(1205,704,ls),
(1113,802,o),
(936,865,o),
(836,803,cs),
(755,753,o),
(713,619,o),
(683,521,cs),
(671,483,l),
(647,526,o),
(619,578,o),
(593,621,cs),
(522,744,o),
(461,799,o),
(389,806,cs),
(312,813,o),
(220,783,o),
(143,725,cs),
(125,711,l),
(142,696,ls),
(180,664,o),
(198,638,o),
(201,626,c),
(198,615,o),
(177,570,o),
(157,527,cs),
(74,346,o),
(0,178,o),
(19,112,cs),
(51,2,o),
(126,2,o),
(182,2,cs),
(298,2,o),
(379,31,o),
(432,90,cs),
(447,106,l),
(428,118,ls),
(408,131,o),
(366,157,o),
(477,353,c),
(486,333,o),
(496,312,o),
(504,291,cs),
(554,168,o),
(622,0,o),
(766,0,cs)
);
},
{
closed = 1;
nodes = (
(345,59,o),
(276,39,o),
(182,39,cs),
(126,39,o),
(79,39,o),
(55,122,cs),
(38,181,o),
(137,396,o),
(191,512,cs),
(230,597,o),
(239,616,o),
(238,628,cs),
(235,654,o),
(210,684,o),
(184,708,c),
(249,752,o),
(324,775,o),
(385,769,cs),
(444,763,o),
(497,714,o),
(562,602,cs),
(628,488,o),
(686,383,o),
(687,382,c),
(712,337,l),
(771,488,l),
(771,488,o),
(722,446,o),
(710,413,c),
(695,439,l),
(702,459,o),
(711,487,o),
(718,510,cs),
(747,602,o),
(787,729,o),
(855,772,cs),
(933,820,o),
(1075,772,o),
(1159,696,c),
(1078,648,o),
(1039,520,o),
(1015,441,cs),
(1010,424,o),
(1006,410,o),
(1002,400,cs),
(998,387,o),
(994,368,o),
(988,343,cs),
(966,236,o),
(925,37,o),
(766,37,cs),
(647,37,o),
(583,184,o),
(538,305,cs),
(506,393,o),
(461,430,o),
(425,428,c),
(435,422,o),
(445,408,o),
(456,391,c),
(363,233,o),
(343,148,o),
(391,101,c)
);
}
);
width = 1274;
}
);
note = N;
unicode = 78;
},
{
glyphname = O;
layers = (
{
layerId = m01;
shapes = (
{
closed = 1;
nodes = (
(651,0,o),
(842,145,o),
(904,372,cs),
(947,531,o),
(900,633,o),
(869,680,cs),
(836,728,o),
(798,752,o),
(775,754,cs),
(759,756,o),
(740,755,o),
(720,752,c),
(676,803,o),
(548,856,o),
(380,822,cs),
(160,778,o),
(22,614,o),
(10,383,cs),
(0,189,o),
(135,37,o),
(347,6,cs),
(374,2,o),
(400,0,o),
(426,0,cs)
);
},
{
closed = 1;
nodes = (
(573,796,o),
(641,769,o),
(676,743,c),
(649,735,o),
(627,703,o),
(627,703,c),
(627,703,o),
(726,723,o),
(771,717,cs),
(780,716,o),
(810,700,o),
(838,659,cs),
(866,618,o),
(908,527,o),
(868,382,cs),
(804,147,o),
(592,7,o),
(352,42,cs),
(161,71,o),
(38,207,o),
(47,381,cs),
(58,594,o),
(185,746,o),
(387,786,cs),
(421,793,o),
(453,796,o),
(483,796,cs)
);
},
{
closed = 1;
nodes = (
(438,220,o),
(442,221,o),
(446,221,cs),
(490,225,o),
(527,259,o),
(540,310,cs),
(551,349,o),
(549,406,o),
(519,445,cs),
(500,470,o),
(472,483,o),
(439,483,c),
(439,483,o),
(467,455,o),
(487,426,c),
(462,431,o),
(437,428,o),
(412,419,cs),
(375,405,o),
(345,377,o),
(334,347,cs),
(324,318,o),
(329,286,o),
(349,260,cs),
(369,235,o),
(399,220,o),
(434,220,cs)
);
},
{
closed = 1;
nodes = (
(476,391,o),
(492,388,o),
(507,380,c),
(511,361,o),
(510,339,o),
(505,320,cs),
(495,284,o),
(471,260,o),
(442,258,cs),
(416,255,o),
(392,264,o),
(378,283,cs),
(367,298,o),
(363,318,o),
(369,334,cs),
(376,355,o),
(398,374,o),
(425,384,cs),
(434,387,o),
(447,391,o),
(463,391,cs)
);
}
);
width = 997;
}
);
note = O;
unicode = 79;
},
{
glyphname = P;
layers = (
{
layerId = m01;
shapes = (
{
closed = 1;
nodes = (
(311,0,o),
(404,48,o),
(467,143,cs),
(483,168,l),
(454,172,ls),
(420,177,o),
(403,186,o),
(395,193,cs),
(388,200,o),
(385,206,o),
(385,212,c),
(387,220,o),
(400,256,o),
(419,305,c),
(575,253,o),
(771,289,o),
(850,460,cs),
(883,532,o),
(888,603,o),
(863,666,cs),
(834,740,o),
(772,787,o),
(727,805,cs),
(648,837,o),
(495,826,o),
(360,815,cs),
(284,809,o),
(213,804,o),
(164,807,cs),
(141,808,l),
(145,785,ls),
(150,753,o),
(160,728,o),
(167,708,cs),
(176,685,o),
(182,668,o),
(178,654,cs),
(176,646,o),
(160,610,o),
(143,572,cs),
(70,410,o),
(0,246,o),
(2,179,cs),
(6,72,o),
(72,4,o),
(173,0,cs),
(190,0,ls)
);
},
{
closed = 1;
nodes = (
(235,768,o),
(297,773,o),
(363,778,cs),
(494,788,o),
(642,800,o),
(713,771,cs),
(751,756,o),
(804,715,o),
(829,653,cs),
(850,598,o),
(846,539,o),
(817,475,cs),
(739,308,o),
(548,302,o),
(432,339,c),
(438,355,o),
(444,372,o),
(451,388,c),
(531,397,o),
(565,449,o),
(564,498,cs),
(562,541,o),
(533,574,o),
(497,574,cs),
(484,574,l),
(480,562,ls),
(450,487,o),
(352,241,o),
(349,218,cs),
(346,199,o),
(354,180,o),
(370,166,cs),
(382,155,o),
(399,147,o),
(420,141,c),
(362,69,o),
(280,34,o),
(175,37,cs),
(93,40,o),
(42,93,o),
(39,180,cs),
(37,244,o),
(128,448,o),
(176,557,cs),
(199,608,o),
(211,634,o),
(213,644,cs),
(220,670,o),
(212,694,o),
(202,721,cs),
(197,735,o),
(191,751,o),
(186,769,c)
);
},
{
closed = 1;
nodes = (
(520,527,o),
(526,512,o),
(527,497,cs),
(528,471,o),
(512,440,o),
(467,429,c),
(481,465,o),
(495,502,o),
(508,534,c)
);
}
);
width = 938;
}
);
note = P;
unicode = 80;
},
{
glyphname = Q;
layers = (
{
layerId = m01;
shapes = (
{
closed = 1;
nodes = (
(535,872,o),
(258,844,o),
(151,802,cs),
(138,797,l),
(129,774,o),
(128,738,o),
(135,716,c),
(67,633,o),
(-129,390,o),
(30,146,cs),
(74,79,o),
(146,34,o),
(227,25,cs),
(239,23,o),
(251,22,o),
(263,22,cs),
(334,22,o),
(404,49,o),
(464,100,c),
(513,54,o),
(580,4,o),
(643,0,cs),
(651,0,ls),
(693,0,o),
(735,22,o),
(772,64,cs),
(845,147,o),
(889,294,o),
(869,393,cs),
(863,424,l),
(839,403,ls),
(767,343,o),
(727,334,o),
(693,345,c),
(798,501,o),
(787,684,o),
(665,775,cs)
);
},
{
closed = 1;
nodes = (
(327,228,o),
(337,231,o),
(347,236,c),
(366,208,o),
(386,182,o),
(407,158,cs),
(415,149,o),
(425,138,o),
(437,126,c),
(376,76,o),
(304,53,o),
(232,62,cs),
(162,71,o),
(100,109,o),
(62,167,cs),
(-84,390,o),
(105,620,o),
(167,695,cs),
(175,705,l),
(168,726,o),
(166,752,o),
(170,771,c),
(227,790,o),
(320,803,o),
(402,803,cs),
(508,803,o),
(593,782,o),
(642,745,cs),
(748,665,o),
(755,502,o),
(659,362,c),
(639,374,o),
(606,398,o),
(570,425,c),
(583,455,o),
(581,497,o),
(558,521,cs),
(543,535,o),
(510,553,o),
(450,513,c),
(428,528,o),
(410,539,o),
(399,543,c),
(445,484,o),
(580,352,o),
(638,324,cs),
(697,294,o),
(751,289,o),
(836,353,c),
(840,268,o),
(801,154,o),
(744,89,cs),
(722,64,o),
(687,37,o),
(645,38,cs),
(528,40,o),
(384,231,o),
(306,350,cs),
(298,362,ls),
(267,410,o),
(248,443,o),
(248,443,c),
(252,422,o),
(261,397,o),
(273,370,c),
(255,353,o),
(245,331,o),
(244,308,cs),
(243,286,o),
(252,264,o),
(268,250,cs),
(283,235,o),
(300,228,o),
(317,228,cs)
);
},
{
closed = 1;
nodes = (
(499,497,o),
(520,505,o),
(531,494,cs),
(540,485,o),
(542,465,o),
(538,449,c),
(520,463,o),
(501,476,o),
(483,489,c)
);
},
{
closed = 1;
nodes = (
(315,263,o),
(305,267,o),
(293,277,cs),
(285,285,o),
(281,295,o),
(282,307,cs),
(282,316,o),
(285,324,o),
(290,333,c),
(301,311,o),
(313,290,o),
(327,268,c)
);
}
);
width = 938;
}
);
note = Q;
unicode = 81;
},
{
glyphname = R;
layers = (
{
layerId = m01;
shapes = (
{
closed = 1;
nodes = (
(940,5,o),
(1071,161,o),
(1074,346,cs),
(1075,379,l),
(1046,362,ls),
(965,313,o),
(923,318,o),
(912,321,cs),
(892,326,o),
(848,360,o),
(819,386,c),
(856,431,o),
(896,494,o),
(907,547,cs),
(928,646,o),
(848,767,o),
(735,806,cs),
(623,844,o),
(348,832,o),
(239,769,cs),
(222,759,l),
(233,743,ls),
(258,705,o),
(271,685,o),
(276,676,c),
(236,505,o),
(135,259,o),
(122,232,cs),
(120,228,o),
(116,225,o),
(108,224,cs),
(84,219,o),
(49,231,o),
(43,237,cs),
(0,281,l),
(12,221,ls),
(23,164,o),
(54,12,o),
(237,1,cs),
(244,0,o),
(251,0,o),
(258,0,cs),
(406,0,o),
(472,101,o),
(511,217,c),
(514,212,o),
(518,207,o),
(522,201,cs),
(580,119,o),
(661,5,o),
(789,5,cs)
);
},
{
closed = 1;
nodes = (
(545,339,l),
(612,366,o),
(656,421,o),
(651,471,cs),
(648,506,o),
(622,530,o),
(582,537,cs),
(566,540,l),
(561,525,ls),
(560,522,o),
(538,455,o),
(493,287,cs),
(444,102,o),
(371,30,o),
(240,38,cs),
(121,45,o),
(78,115,o),
(57,192,c),
(75,186,o),
(97,184,o),
(114,187,cs),
(140,192,o),
(151,206,o),
(156,217,cs),
(169,246,o),
(274,499,o),
(314,675,cs),
(316,683,l),
(312,689,l),
(312,690,o),
(304,703,o),
(275,746,c),
(384,795,o),
(628,804,o),
(723,771,cs),
(818,738,o),
(888,636,o),
(871,555,cs),
(854,477,o),
(802,402,o),
(731,355,c),
(681,326,l),
(681,326,o),
(737,321,o),
(760,331,cs),
(768,334,o),
(780,344,o),
(794,358,c),
(818,338,o),
(871,293,o),
(903,285,cs),
(936,277,o),
(983,287,o),
(1035,314,c),
(1019,163,o),
(912,42,o),
(789,42,cs),
(680,42,o),
(609,142,o),
(552,223,cs),
(542,236,o),
(533,249,o),
(524,261,c),
(526,266,o),
(527,272,o),
(529,277,c)
);
},
{
closed = 1;
nodes = (
(602,492,o),
(613,483,o),
(614,468,cs),
(617,444,o),
(598,411,o),
(559,387,c),
(574,442,o),
(585,478,o),
(590,497,c)
);
}
);
width = 1125;
}
);
note = R;
unicode = 82;
},
{
glyphname = S;
layers = (
{
layerId = m01;
shapes = (
{
closed = 1;
nodes = (
(872,861,l),
(854,851,l),
(834,840,ls),
(795,818,o),
(782,810,o),
(734,809,cs),
(733,809,ls),
(721,809,o),
(692,816,o),
(662,823,cs),
(529,853,o),
(282,910,o),
(165,758,cs),
(132,715,o),
(123,653,o),
(140,587,cs),
(155,530,o),
(187,480,o),
(231,445,c),
(215,443,o),
(199,440,o),
(183,437,cs),
(84,416,o),
(9,343,o),
(-33,227,cs),
(-43,201,l),
(-12,203,ls),
(-5,203,o),
(2,204,o),
(8,204,cs),
(65,208,o),
(94,211,o),
(208,148,cs),
(234,134,o),
(259,118,o),
(283,102,cs),
(361,52,o),
(442,0,o),
(561,0,cs),
(599,0,o),
(642,5,o),
(689,17,cs),
(740,31,o),
(787,71,o),
(817,128,cs),
(853,196,o),
(860,274,o),
(834,332,cs),
(789,431,o),
(700,493,o),
(624,531,c),
(661,531,o),
(701,534,o),
(746,541,cs),
(830,554,o),
(881,585,o),
(900,622,cs),
(936,693,o),
(914,796,o),
(882,844,cs)
);
},
{
closed = 1;
nodes = (
(843,597,o),
(793,586,o),
(739,578,cs),
(647,564,o),
(572,563,o),
(517,578,cs),
(514,579,o),
(511,581,o),
(508,582,cs),
(498,585,o),
(488,589,o),
(480,593,cs),
(477,594,o),
(474,595,o),
(471,597,c),
(392,635,o),
(384,686,o),
(384,686,c),
(384,686,o),
(374,678,o),
(370,664,cs),
(357,618,o),
(455,563,o),
(490,548,cs),
(498,544,o),
(507,541,o),
(517,537,cs),
(594,506,o),
(737,449,o),
(796,318,cs),
(817,270,o),
(811,202,o),
(780,144,cs),
(755,97,o),
(718,64,o),
(678,54,cs),
(501,8,o),
(406,69,o),
(306,133,cs),
(282,149,o),
(256,165,o),
(229,180,cs),
(112,244,o),
(72,246,o),
(17,242,c),
(55,330,o),
(115,384,o),
(192,400,cs),
(340,432,o),
(470,406,o),
(558,328,cs),
(611,280,l),
(592,346,ls),
(570,419,o),
(516,458,o),
(491,469,c),
(491,469,o),
(542,401,o),
(539,385,c),
(455,432,o),
(376,451,o),
(293,450,c),
(294,451,l),
(239,477,o),
(196,532,o),
(180,596,cs),
(166,650,o),
(173,703,o),
(199,737,cs),
(300,868,o),
(529,815,o),
(652,786,cs),
(690,778,o),
(717,771,o),
(735,772,cs),
(794,773,o),
(814,785,o),
(856,808,c),
(874,767,o),
(890,689,o),
(865,640,cs)
);
}
);
width = 986;
}
);
note = S;
unicode = 83;
},
{
glyphname = T;
layers = (
{
layerId = m01;
shapes = (
{
closed = 1;
nodes = (
(262,0,o),
(275,1,o),
(288,2,cs),
(355,11,o),
(451,37,o),
(502,170,cs),
(513,198,l),
(483,195,ls),
(443,190,o),
(416,194,o),
(402,207,cs),
(392,216,o),
(388,230,o),
(388,250,cs),
(388,308,o),
(413,405,o),
(483,494,c),
(547,491,o),
(616,490,o),
(662,501,cs),
(737,518,o),
(888,646,o),
(898,819,cs),
(901,864,l),
(867,833,ls),
(843,812,o),
(722,767,o),
(574,791,cs),
(397,820,o),
(181,846,o),
(84,786,cs),
(11,742,o),
(-57,610,o),
(-41,475,cs),
(-37,443,l),
(-12,462,l),
(56,507,o),
(151,509,o),
(220,506,c),
(82,366,o),
(30,245,o),
(61,137,cs),
(85,50,o),
(155,0,o),
(250,0,cs)
);
},
{
closed = 1;
nodes = (
(324,512,o),
(350,538,o),
(350,538,c),
(304,541,ls),
(200,548,o),
(73,550,o),
(-6,509,c),
(-8,616,o),
(45,719,o),
(103,755,cs),
(201,815,o),
(468,771,o),
(568,755,cs),
(692,735,o),
(800,759,o),
(856,785,c),
(830,646,o),
(707,549,o),
(653,537,cs),
(597,523,o),
(508,532,o),
(473,533,cs),
(438,534,o),
(410,498,o),
(410,498,c),
(418,497,ls),
(425,497,o),
(431,497,o),
(438,496,c),
(374,406,o),
(351,309,o),
(351,250,cs),
(351,219,o),
(360,195,o),
(378,179,cs),
(395,163,o),
(420,156,o),
(456,156,c),
(411,67,o),
(341,46,o),
(283,39,cs),
(151,23,o),
(110,100,o),
(96,147,cs),
(68,247,o),
(125,363,o),
(269,503,c),
(286,502,o),
(297,502,o),
(302,504,cs)
);
}
);
width = 950;
}
);
note = T;
unicode = 84;
},
{
glyphname = U;
layers = (
{
layerId = m01;
shapes = (
{
closed = 1;
nodes = (
(734,0,o),
(892,143,o),
(912,282,cs),
(916,306,l),
(891,303,ls),
(843,295,o),
(799,300,o),
(795,309,cs),
(776,351,o),
(848,529,o),
(974,754,cs),
(982,769,l),
(968,778,ls),
(928,806,o),
(872,819,o),
(815,816,cs),
(766,812,o),
(694,795,o),
(625,729,cs),
(509,620,o),
(449,425,o),
(436,316,c),
(413,308,o),
(390,305,o),
(372,306,cs),
(349,308,o),
(336,315,o),
(331,321,cs),
(313,345,o),
(357,441,o),
(390,511,cs),
(428,593,o),
(464,671,o),
(455,717,cs),
(446,763,o),
(412,796,o),
(356,814,cs),
(256,847,o),
(110,823,o),
(65,781,cs),
(50,767,l),
(65,753,ls),
(70,749,o),
(74,746,o),
(78,742,cs),
(106,719,o),
(113,711,o),
(109,695,cs),
(107,689,o),
(97,666,o),
(87,641,cs),
(37,523,o),
(-57,303,o),
(-30,200,cs),
(2,79,o),
(97,7,o),
(225,7,cs),
(298,7,o),
(387,51,o),
(457,103,c),
(469,61,o),
(506,10,o),
(590,1,cs),
(596,0,o),
(602,0,o),
(607,0,cs)
);
},
{
closed = 1;
nodes = (
(549,187,o),
(556,220,o),
(547,250,c),
(530,226,ls),
(484,154,o),
(332,44,o),
(225,44,cs),
(113,44,o),
(33,105,o),
(5,210,cs),
(-18,300,o),
(79,529,o),
(121,627,cs),
(135,661,o),
(142,678,o),
(144,686,cs),
(154,723,o),
(133,745,o),
(108,765,c),
(158,789,o),
(267,804,o),
(345,779,cs),
(387,765,o),
(412,742,o),
(418,710,cs),
(425,675,o),
(389,596,o),
(356,527,cs),
(310,427,o),
(270,341,o),
(302,299,cs),
(315,282,o),
(339,271,o),
(370,270,cs),
(415,267,o),
(497,306,o),
(511,323,cs),
(534,352,o),
(530,391,o),
(530,391,c),
(500,357,ls),
(493,349,o),
(485,343,o),
(476,337,c),
(494,441,o),
(551,609,o),
(650,702,cs),
(752,799,o),
(871,788,o),
(933,756,c),
(850,608,o),
(728,366,o),
(762,294,cs),
(777,262,o),
(833,260,o),
(870,263,c),
(838,147,o),
(695,27,o),
(594,38,cs),
(508,47,o),
(493,107,o),
(490,129,c),
(503,141,o),
(516,152,o),
(527,164,cs)
);
}
);
width = 1031;
}
);
note = U;
unicode = 85;
},
{
glyphname = V;
layers = (
{
layerId = m01;
shapes = (
{
closed = 1;
nodes = (
(442,0,o),
(503,13,o),
(560,54,cs),
(657,122,o),
(755,285,o),
(843,429,cs),
(887,502,o),
(929,571,o),
(965,619,cs),
(1011,680,o),
(1058,712,o),
(1103,714,cs),
(1127,715,l),
(1120,738,ls),
(1117,747,o),
(1109,761,o),
(1069,778,cs),
(992,811,o),
(842,834,o),
(760,792,cs),
(699,760,o),
(639,651,o),
(575,536,cs),
(543,478,o),
(511,420,o),
(478,370,c),
(468,444,o),
(447,596,o),
(439,634,c),
(437,639,o),
(436,644,o),
(435,650,cs),
(425,703,o),
(407,792,o),
(320,813,cs),
(192,843,o),
(99,786,o),
(24,726,cs),
(0,706,l),
(29,694,ls),
(86,670,o),
(99,653,o),
(102,646,c),
(108,625,o),
(166,276,o),
(173,198,c),
(148,197,o),
(122,199,o),
(104,203,cs),
(66,213,l),
(83,177,ls),
(110,124,o),
(156,75,o),
(210,44,c),
(211,44,o),
(289,0,o),
(388,0,cs)
);
},
{
closed = 1;
nodes = (
(130,678,o),
(109,697,o),
(71,715,c),
(137,764,o),
(212,800,o),
(312,777,cs),
(376,761,o),
(389,693,o),
(399,643,cs),
(402,626,ls),
(413,579,o),
(445,338,o),
(447,327,c),
(440,318,o),
(434,310,o),
(427,303,c),
(443,289,o),
(466,291,o),
(479,308,cs),
(523,365,o),
(566,443,o),
(607,518,cs),
(666,623,o),
(726,732,o),
(777,759,cs),
(855,799,o),
(1001,769,o),
(1060,743,c),
(1017,728,o),
(976,694,o),
(936,641,cs),
(898,591,o),
(856,522,o),
(811,448,cs),
(726,307,o),
(629,147,o),
(539,84,cs),
(397,-16,o),
(230,76,o),
(228,76,c),
(192,97,o),
(159,128,o),
(135,162,c),
(174,159,o),
(220,162,o),
(243,170,c),
(242,173,ls),
(237,187,o),
(224,197,o),
(210,199,c),
(203,279,o),
(143,639,o),
(137,657,cs)
);
}
);
width = 1177;
}
);
note = V;
unicode = 86;
},
{
glyphname = W;
layers = (
{
layerId = m01;
shapes = (
{
closed = 1;
nodes = (
(842,0,o),
(873,5,o),
(897,13,cs),
(907,16,l),
(910,26,ls),
(968,245,o),
(1115,586,o),
(1174,661,cs),
(1235,737,o),
(1256,746,o),
(1289,750,cs),
(1326,754,l),
(1326,754,o),
(1291,835,o),
(1056,851,cs),
(1052,851,ls),
(990,850,o),
(904,838,o),
(851,781,cs),
(775,697,o),
(718,554,o),
(689,462,c),
(665,525,o),
(614,620,o),
(510,656,cs),
(500,659,l),
(492,652,ls),
(446,611,o),
(389,571,o),
(347,501,c),
(347,522,o),
(348,543,o),
(349,565,cs),
(353,664,o),
(357,757,o),
(312,795,cs),
(243,854,o),
(49,850,o),
(-59,786,cs),
(-86,770,l),
(-59,754,ls),
(-17,730,o),
(13,685,o),
(20,637,cs),
(26,598,o),
(25,539,o),
(24,477,cs),
(23,370,o),
(21,250,o),
(47,157,cs),
(64,98,o),
(110,51,o),
(174,27,cs),
(197,19,o),
(220,15,o),
(240,15,cs),
(261,15,o),
(278,19,o),
(291,27,cs),
(295,30,l),
(297,35,ls),
(355,157,o),
(460,318,o),
(492,367,c),
(520,324,o),
(528,279,o),
(539,239,cs),
(551,195,o),
(564,150,o),
(589,105,cs),
(632,30,o),
(726,0,o),
(809,0,cs)
);
},
{
closed = 1;
nodes = (
(252,49,o),
(221,49,o),
(187,62,cs),
(162,71,o),
(101,100,o),
(83,167,cs),
(58,254,o),
(60,372,o),
(61,476,cs),
(62,543,o),
(63,600,o),
(57,643,cs),
(50,691,o),
(24,736,o),
(-14,768,c),
(89,813,o),
(240,808,o),
(288,767,cs),
(319,741,o),
(315,648,o),
(312,566,cs),
(310,518,o),
(308,468,o),
(312,426,c),
(310,421,o),
(308,416,o),
(307,411,cs),
(298,381,o),
(307,310,o),
(307,310,c),
(360,464,o),
(442,557,o),
(508,617,c),
(637,564,o),
(670,396,o),
(671,394,c),
(670,389,o),
(669,385,o),
(669,382,cs),
(663,328,o),
(682,269,o),
(682,269,c),
(682,269,o),
(732,591,o),
(879,756,cs),
(912,793,o),
(974,813,o),
(1053,814,cs),
(1127,815,o),
(1200,797,o),
(1243,776,c),
(1214,763,o),
(1187,737,o),
(1145,684,cs),
(1084,607,o),
(939,274,o),
(877,45,c),
(806,27,o),
(670,36,o),
(621,123,cs),
(598,164,o),
(586,207,o),
(575,249,cs),
(563,293,o),
(550,338,o),
(524,380,cs),
(506,410,o),
(473,428,o),
(438,427,cs),
(431,427,l),
(445,418,o),
(457,407,o),
(468,397,c),
(446,365,o),
(330,189,o),
(266,56,c)
);
}
);
width = 1304;
}
);
note = W;
unicode = 87;
},
{
glyphname = X;
layers = (
{
layerId = m01;
shapes = (
{
closed = 1;
nodes = (
(-31,137,o),
(-4,95,o),
(46,56,cs),
(137,-17,o),
(271,2,o),
(271,2,c),
(220,61,o),
(244,94,o),
(302,181,cs),
(340,239,o),
(361,260,o),
(382,276,c),
(482,112,o),
(584,21,o),
(677,12,cs),
(688,11,o),
(698,10,o),
(709,10,cs),
(845,10,o),
(939,95,o),
(973,184,cs),
(983,210,l),
(955,209,ls),
(954,209,o),
(883,206,o),
(834,227,cs),
(780,249,o),
(699,334,o),
(594,478,c),
(687,570,o),
(795,649,o),
(822,667,cs),
(889,712,o),
(1010,731,o),
(1010,731,c),
(1005,769,o),
(903,881,o),
(702,826,cs),
(673,817,o),
(562,773,o),
(441,693,c),
(393,773,o),
(348,820,o),
(307,832,cs),
(182,867,o),
(-10,819,o),
(-47,713,cs),
(-57,685,l),
(-27,689,ls),
(18,695,o),
(70,680,o),
(89,662,cs),
(99,653,o),
(146,600,o),
(197,519,c),
(112,442,o),
(-3,320,o),
(-23,191,cs)
);
},
{
closed = 1;
nodes = (
(409,311,o),
(416,337,o),
(434,350,c),
(411,342,o),
(380,319,o),
(349,288,cs),
(310,249,o),
(284,220,o),
(271,202,cs),
(223,134,o),
(192,77,o),
(206,32,c),
(51,40,o),
(0,150,o),
(5,188,cs),
(26,323,o),
(187,485,o),
(300,558,cs),
(302,559,o),
(301,560,o),
(299,561,c),
(288,563,o),
(254,566,o),
(225,544,c),
(173,624,o),
(126,679,o),
(114,689,cs),
(91,711,o),
(46,725,o),
(2,727,c),
(54,793,o),
(201,823,o),
(297,796,cs),
(328,787,o),
(369,743,o),
(412,670,c),
(384,641,o),
(374,605,o),
(374,605,c),
(518,698,o),
(688,781,o),
(712,790,cs),
(793,820,o),
(882,815,o),
(959,760,c),
(921,751,o),
(855,733,o),
(802,698,cs),
(775,680,o),
(681,609,o),
(582,521,cs),
(551,495,o),
(530,468,o),
(507,438,c),
(527,449,o),
(547,455,o),
(566,453,c),
(676,304,o),
(759,218,o),
(820,193,cs),
(855,178,o),
(899,173,o),
(927,172,c),
(888,99,o),
(801,38,o),
(681,49,cs),
(599,56,o),
(507,142,o),
(412,298,c)
);
}
);
width = 1059;
}
);
note = X;
unicode = 88;
},
{
glyphname = Y;
layers = (
{
layerId = m01;
shapes = (
{
closed = 1;
nodes = (
(174,265,o),
(125,270,o),
(88,300,cs),
(57,324,l),
(58,285,ls),
(58,279,o),
(62,140,o),
(135,71,cs),
(188,20,o),
(256,0,o),
(322,0,cs),
(377,0,o),
(431,14,o),
(474,36,cs),
(561,82,o),
(663,232,o),
(762,376,cs),
(851,508,o),
(944,643,o),
(1015,684,cs),
(1032,693,l),
(1021,710,ls),
(940,832,o),
(814,866,o),
(668,806,cs),
(614,784,o),
(552,714,o),
(505,643,c),
(474,694,o),
(391,818,o),
(296,827,cs),
(182,838,o),
(63,775,o),
(4,707,cs),
(-14,686,l),
(12,678,ls),
(70,660,o),
(240,538,o),
(317,382,c),
(277,332,o),
(240,294,o),
(221,286,cs)
);
},
{
closed = 1;
nodes = (
(474,528,l),
(532,626,o),
(635,752,o),
(682,772,cs),
(769,808,o),
(890,824,o),
(979,705,c),
(905,652,o),
(821,528,o),
(731,397,cs),
(635,256,o),
(536,110,o),
(457,69,cs),
(338,8,o),
(220,41,o),
(160,98,cs),
(119,137,o),
(104,208,o),
(98,251,c),
(140,231,o),
(190,232,o),
(236,252,cs),
(274,269,o),
(368,384,o),
(414,448,c),
(394,443,ls),
(374,439,o),
(356,429,o),
(342,414,c),
(269,551,o),
(128,663,o),
(50,702,c),
(85,753,o),
(194,808,o),
(284,799,cs),
(382,789,o),
(483,605,o),
(484,604,c),
(485,604,l),
(477,584,o),
(474,563,o),
(474,541,cs)
);
}
);
width = 1067;
}
);
note = Y;
unicode = 89;
},
{
glyphname = Z;
layers = (
{
layerId = m01;
shapes = (
{
closed = 1;
nodes = (
(-28,179,o),
(10,114,o),
(79,69,cs),
(135,32,o),
(222,13,o),
(260,11,cs),
(266,10,l),
(270,13,l),
(374,72,o),
(543,111,o),
(571,91,cs),
(597,73,o),
(577,40,o),
(575,36,cs),
(552,0,l),
(594,8,ls),
(687,25,o),
(758,81,o),
(778,154,cs),
(800,232,o),
(771,316,o),
(715,338,cs),
(661,358,o),
(555,361,o),
(449,328,c),
(489,352,o),
(536,377,o),
(582,401,cs),
(696,461,o),
(804,518,o),
(827,573,cs),
(852,636,o),
(838,713,o),
(789,773,cs),
(743,830,o),
(677,859,o),
(618,848,cs),
(528,832,o),
(213,802,o),
(138,853,cs),
(116,868,l),
(110,842,ls),
(99,797,o),
(96,705,o),
(153,645,cs),
(179,617,o),
(214,601,o),
(256,597,c),
(106,510,o),
(-41,387,o),
(-33,256,cs)
);
},
{
closed = 1;
nodes = (
(329,199,o),
(335,222,o),
(345,240,c),
(346,239,l),
(480,328,o),
(647,324,o),
(702,303,cs),
(735,290,o),
(760,226,o),
(743,164,cs),
(729,114,o),
(682,73,o),
(620,53,c),
(624,76,o),
(620,102,o),
(593,121,cs),
(540,159,o),
(347,97,o),
(257,48,c),
(223,51,o),
(147,68,o),
(99,99,cs),
(40,138,o),
(8,192,o),
(4,259,cs),
(-1,346,o),
(74,430,o),
(138,484,cs),
(215,550,o),
(380,623,o),
(483,663,c),
(452,677,o),
(416,677,o),
(385,663,cs),
(364,654,o),
(341,643,o),
(318,631,c),
(260,626,o),
(208,640,o),
(179,670,cs),
(145,706,o),
(136,764,o),
(142,810,c),
(264,763,o),
(577,803,o),
(624,811,cs),
(671,820,o),
(723,796,o),
(760,750,cs),
(801,700,o),
(813,637,o),
(792,587,cs),
(775,544,o),
(663,486,o),
(565,434,cs),
(465,381,o),
(370,331,o),
(331,282,cs),
(326,276,o),
(321,270,o),
(317,263,cs),
(297,231,o),
(307,188,o),
(338,166,c)
);
}
);
width = 902;
}
);
note = Z;
unicode = 90;
},
{
glyphname = zero;
layers = (
{
layerId = m01;
shapes = (
{
closed = 1;
nodes = (
(627,3,o),
(654,10,o),
(671,24,cs),
(689,38,l),
(671,53,ls),
(642,76,o),
(623,126,o),
(616,148,c),
(721,237,o),
(781,353,o),
(788,476,cs),
(793,573,o),
(762,664,o),
(707,719,cs),
(583,843,o),
(378,833,o),
(246,739,c),
(202,781,o),
(72,781,o),
(51,744,c),
(96,729,o),
(138,655,o),
(115,610,c),
(11,475,o),
(-63,233,o),
(89,89,cs),
(152,30,o),
(227,0,o),
(305,0,cs),
(362,0,o),
(422,16,o),
(481,48,c),
(502,28,o),
(527,14,o),
(556,8,c),
(558,8,l),
(571,5,o),
(585,3,o),
(598,3,cs)
);
},
{
closed = 1;
nodes = (
(-28,251,o),
(48,494,o),
(187,637,c),
(155,633,l),
(156,671,o),
(149,709,o),
(121,737,c),
(139,740,o),
(161,741,o),
(182,734,cs),
(224,721,o),
(229,702,o),
(234,689,c),
(235,684,l),
(353,781,o),
(566,808,o),
(681,693,cs),
(729,645,o),
(755,564,o),
(751,478,cs),
(745,361,o),
(685,252,o),
(584,169,cs),
(575,162,l),
(577,150,ls),
(578,147,o),
(594,86,o),
(628,44,c),
(612,40,o),
(590,41,o),
(566,44,cs),
(486,52,o),
(424,178,o),
(424,178,c),
(427,152,ls),
(431,124,o),
(441,99,o),
(456,76,c),
(332,12,o),
(211,26,o),
(115,116,cs)
);
},
{
closed = 1;
nodes = (
(420,343,o),
(434,349,o),
(447,360,cs),
(472,382,o),
(485,419,o),
(480,453,cs),
(473,490,o),
(445,518,o),
(405,528,cs),
(380,535,o),
(350,534,o),
(320,524,cs),
(271,508,o),
(240,459,o),
(245,408,c),
(264,461,o),
(313,484,o),
(337,491,c),
(342,475,o),
(344,455,o),
(346,436,cs),
(349,397,o),
(352,357,o),
(387,346,cs),
(393,344,o),
(399,343,o),
(405,343,cs)
);
},
{
closed = 1;
nodes = (
(396,493,l),
(422,486,o),
(439,469,o),
(443,447,cs),
(447,426,o),
(438,401,o),
(423,388,cs),
(417,383,o),
(408,378,o),
(398,381,cs),
(387,385,o),
(385,414,o),
(382,439,cs),
(381,457,o),
(379,477,o),
(374,496,c)
);
}
);
width = 842;
}
);
note = zero;
unicode = 48;
},
{
glyphname = one;
layers = (
{
layerId = m01;
shapes = (
{
closed = 1;
nodes = (
(271,0,o),
(281,1,o),
(289,2,cs),
(342,11,o),
(453,48,o),
(502,125,cs),
(522,155,l),
(485,153,ls),
(465,152,o),
(450,156,o),
(441,164,cs),
(434,170,o),
(431,179,o),
(431,190,cs),
(432,211,o),
(489,357,o),
(527,455,cs),
(553,521,o),
(575,578,o),
(584,606,cs),
(603,663,o),
(589,723,o),
(546,767,cs),
(486,827,o),
(389,844,o),
(287,811,cs),
(284,810,l),
(271,803,o),
(253,791,o),
(231,776,cs),
(175,736,o),
(91,677,o),
(31,677,cs),
(0,677,l),
(14,650,ls),
(49,584,o),
(100,549,o),
(159,550,c),
(90,391,o),
(30,200,o),
(60,122,cs),
(95,26,o),
(195,0,o),
(259,0,cs)
);
},
{
closed = 1;
nodes = (
(247,662,ls),
(215,647,o),
(190,622,o),
(176,591,c),
(176,589,l),
(121,579,o),
(84,612,o),
(61,643,c),
(126,656,o),
(198,707,o),
(253,745,cs),
(272,759,o),
(289,771,o),
(300,777,c),
(404,809,o),
(481,779,o),
(519,741,cs),
(553,707,o),
(564,662,o),
(549,618,cs),
(540,591,o),
(517,531,o),
(492,468,cs),
(423,290,o),
(394,212,o),
(394,190,cs),
(394,169,o),
(402,151,o),
(416,137,cs),
(423,130,o),
(434,123,o),
(450,119,c),
(405,73,o),
(329,46,o),
(283,39,cs),
(238,31,o),
(128,45,o),
(94,135,cs),
(62,222,o),
(164,503,o),
(258,667,c)
);
}
);
width = 653;
}
);
note = one;
unicode = 49;
},
{
glyphname = two;
layers = (
{
layerId = m01;
shapes = (
{
closed = 1;
nodes = (
(529,0,o),
(648,35,o),
(691,65,cs),
(770,121,o),
(813,229,o),
(854,373,cs),
(873,436,l),
(824,393,ls),
(752,329,o),
(595,287,o),
(450,293,cs),
(437,293,o),
(423,294,o),
(410,296,c),
(560,337,o),
(691,419,o),
(757,514,cs),
(792,564,o),
(806,615,o),
(798,661,cs),
(788,715,o),
(756,760,o),
(704,790,cs),
(607,848,o),
(468,842,o),
(373,811,cs),
(345,801,o),
(316,790,o),
(286,778,cs),
(217,750,o),
(146,722,o),
(69,713,cs),
(48,711,l),
(53,690,ls),
(84,550,o),
(163,485,o),
(288,472,cs),
(340,467,o),
(405,492,o),
(468,516,cs),
(513,533,o),
(560,551,o),
(591,552,c),
(548,500,o),
(356,369,o),
(103,409,cs),
(98,410,l),
(93,408,ls),
(64,396,o),
(46,364,o),
(35,339,cs),
(12,284,o),
(0,184,o),
(27,120,cs),
(29,116,l),
(33,113,ls),
(138,28,o),
(273,0,o),
(394,0,cs)
);
},
{
closed = 1;
nodes = (
(665,536,o),
(651,580,o),
(615,588,cs),
(614,588,o),
(613,589,o),
(612,589,cs),
(572,596,o),
(515,575,o),
(455,552,cs),
(396,529,o),
(335,494,o),
(292,499,cs),
(190,509,o),
(125,568,o),
(95,678,c),
(169,690,o),
(238,718,o),
(300,742,cs),
(330,754,o),
(358,766,o),
(385,775,cs),
(487,809,o),
(611,802,o),
(685,758,cs),
(727,733,o),
(752,698,o),
(760,654,cs),
(767,618,o),
(755,577,o),
(726,535,cs),
(656,434,o),
(513,333,o),
(319,313,c),
(298,320,o),
(280,328,o),
(264,338,c),
(266,309,o),
(286,284,o),
(315,275,cs),
(352,264,o),
(399,257,o),
(449,255,cs),
(579,250,o),
(714,280,o),
(802,331,c),
(771,232,o),
(732,141,o),
(669,97,cs),
(596,45,o),
(265,-21,o),
(60,140,c),
(41,191,o),
(51,278,o),
(70,324,cs),
(80,347,o),
(92,363,o),
(103,370,c),
(374,330,o),
(587,472,o),
(630,541,c),
(636,535,o),
(641,526,o),
(639,510,c)
);
}
);
width = 923;
}
);
note = two;
unicode = 50;
},
{
glyphname = three;
layers = (
{
layerId = m01;
shapes = (
{
closed = 1;
nodes = (
(582,436,o),
(570,439,o),
(559,442,c),
(672,472,o),
(753,538,o),
(781,621,cs),
(796,666,o),
(795,709,o),
(777,745,cs),
(756,785,o),
(717,815,o),
(662,832,cs),
(630,842,o),
(550,835,o),
(422,822,cs),
(318,812,o),
(200,801,o),
(153,810,cs),
(130,815,l),
(131,792,ls),
(135,637,o),
(181,556,o),
(267,551,cs),
(298,549,o),
(343,557,o),
(391,566,cs),
(427,572,o),
(484,582,o),
(522,582,c),
(472,525,o),
(346,512,o),
(268,526,cs),
(233,532,l),
(248,500,ls),
(268,455,o),
(304,412,o),
(351,377,c),
(286,390,o),
(224,398,o),
(188,390,cs),
(138,379,o),
(68,335,o),
(31,272,cs),
(7,230,o),
(1,185,o),
(15,143,cs),
(52,23,o),
(120,6,o),
(122,5,c),
(144,0,l),
(145,22,ls),
(147,58,o),
(149,62,o),
(159,68,c),
(172,68,o),
(212,58,o),
(248,50,cs),
(340,29,o),
(451,3,o),
(541,13,cs),
(630,23,o),
(760,33,o),
(798,222,cs),
(823,342,o),
(669,417,o),
(595,434,cs)
);
},
{
closed = 1;
nodes = (
(752,74,o),
(620,48,o),
(546,38,cs),
(471,29,o),
(340,67,o),
(257,86,cs),
(174,105,o),
(155,108,o),
(142,101,cs),
(121,88,o),
(114,74,o),
(111,53,c),
(20,84,o),
(0,299,o),
(196,354,cs),
(225,362,o),
(286,350,o),
(344,340,cs),
(396,331,o),
(427,326,o),
(455,325,cs),
(456,325,o),
(457,325,o),
(458,324,c),
(458,325,l),
(467,325,o),
(477,325,o),
(486,326,cs),
(517,328,o),
(541,348,o),
(539,369,c),
(539,369,o),
(529,356,o),
(468,360,c),
(395,381,o),
(313,451,o),
(286,497,c),
(378,481,o),
(512,499,o),
(561,573,c),
(613,588,l),
(588,630,o),
(479,618,o),
(385,602,cs),
(339,594,o),
(296,587,o),
(269,588,cs),
(247,589,o),
(179,593,o),
(169,771,c),
(227,767,o),
(328,776,o),
(425,786,cs),
(518,795,o),
(624,805,o),
(651,796,cs),
(696,782,o),
(728,759,o),
(744,728,cs),
(757,701,o),
(758,669,o),
(746,633,cs),
(719,555,o),
(620,484,o),
(503,460,c),
(489,466,o),
(478,472,o),
(469,479,c),
(477,432,o),
(541,408,o),
(587,397,cs),
(618,390,o),
(667,370,o),
(704,341,cs),
(748,306,o),
(779,257,o),
(773,216,cs)
);
}
);
width = 873;
}
);
note = three;
unicode = 51;
},
{
glyphname = four;
layers = (
{
layerId = m01;
shapes = (
{
closed = 1;
nodes = (
(597,0,o),
(648,26,o),
(688,80,cs),
(706,103,o),
(719,159,o),
(741,255,cs),
(780,424,o),
(839,679,o),
(958,768,cs),
(987,790,l),
(953,801,ls),
(899,818,o),
(827,825,o),
(758,819,cs),
(702,815,o),
(625,800,o),
(577,754,cs),
(531,711,o),
(460,552,o),
(427,468,c),
(349,465,l),
(391,523,o),
(406,577,o),
(394,646,cs),
(375,757,o),
(223,815,o),
(125,813,cs),
(74,812,l),
(114,780,ls),
(152,750,o),
(163,714,o),
(146,674,cs),
(143,668,o),
(121,649,o),
(106,635,cs),
(60,595,o),
(4,545,o),
(2,495,cs),
(0,422,o),
(60,346,o),
(117,318,cs),
(128,312,o),
(141,310,o),
(155,310,cs),
(178,310,o),
(207,316,o),
(239,323,cs),
(279,331,o),
(328,345,o),
(386,344,c),
(353,254,o),
(336,199,o),
(332,184,cs),
(321,150,o),
(325,111,o),
(344,80,cs),
(360,53,o),
(394,19,o),
(465,6,cs),
(488,2,o),
(509,0,o),
(528,0,cs)
);
},
{
closed = 1;
nodes = (
(480,354,o),
(445,376,o),
(407,379,cs),
(342,383,o),
(282,370,o),
(231,359,cs),
(190,351,o),
(138,342,o),
(121,351,cs),
(73,374,o),
(24,438,o),
(26,494,cs),
(27,527,o),
(94,575,o),
(130,607,cs),
(158,632,o),
(174,647,o),
(180,660,cs),
(190,685,o),
(201,728,o),
(171,772,c),
(251,759,o),
(346,711,o),
(358,639,cs),
(369,572,o),
(350,521,o),
(299,461,c),
(280,459,o),
(262,456,o),
(246,454,c),
(249,434,o),
(267,420,o),
(287,422,cs),
(329,427,o),
(380,430,o),
(440,431,cs),
(453,431,l),
(457,443,ls),
(505,566,o),
(568,695,o),
(602,728,cs),
(666,787,o),
(813,794,o),
(909,774,c),
(797,664,o),
(745,434,o),
(705,264,cs),
(688,190,o),
(672,120,o),
(659,102,cs),
(615,44,o),
(561,27,o),
(472,42,cs),
(426,51,o),
(393,70,o),
(375,99,cs),
(362,121,o),
(359,149,o),
(367,173,cs),
(372,189,o),
(389,246,o),
(424,340,c),
(448,337,o),
(473,331,o),
(499,320,c)
);
}
);
width = 1037;
}
);
note = four;
unicode = 52;
},
{
glyphname = five;
layers = (
{
layerId = m01;
shapes = (
{
closed = 1;
nodes = (
(619,0,o),
(706,15,o),
(784,139,cs),
(824,203,o),
(825,280,o),
(786,345,cs),
(726,446,o),
(590,503,o),
(420,499,c),
(422,508,o),
(424,517,o),
(425,526,c),
(526,488,o),
(671,478,o),
(767,518,cs),
(849,552,o),
(874,624,o),
(899,693,cs),
(914,736,o),
(929,778,o),
(957,808,cs),
(998,854,l),
(938,839,ls),
(779,797,o),
(413,763,o),
(309,821,cs),
(274,841,l),
(292,695,o),
(260,552,o),
(217,434,c),
(217,434,o),
(446,397,o),
(475,361,cs),
(480,355,o),
(484,344,o),
(487,331,c),
(365,402,o),
(204,430,o),
(113,366,cs),
(30,306,o),
(-30,197,o),
(-39,77,cs),
(-43,25,l),
(-7,62,ls),
(61,134,o),
(184,90,o),
(303,48,cs),
(370,25,o),
(432,2,o),
(484,1,cs),
(501,1,ls),
(513,0,o),
(526,0,o),
(538,0,cs)
);
},
{
closed = 1;
nodes = (
(466,246,l),
(551,285,o),
(520,353,o),
(502,375,cs),
(463,425,o),
(275,445,o),
(261,458,c),
(302,542,o),
(326,696,o),
(322,776,c),
(450,734,o),
(737,758,o),
(900,792,c),
(885,765,o),
(874,735,o),
(864,705,cs),
(841,641,o),
(819,580,o),
(753,552,cs),
(638,504,o),
(469,517,o),
(368,593,c),
(368,593,o),
(368,558,o),
(390,542,c),
(388,524,o),
(373,460,o),
(373,460,c),
(487,500,o),
(695,428,o),
(754,327,cs),
(785,272,o),
(785,211,o),
(753,159,cs),
(673,33,o),
(590,35,o),
(502,38,cs),
(485,38,ls),
(439,39,o),
(379,60,o),
(315,83,cs),
(208,121,o),
(89,163,o),
(4,117,c),
(21,208,o),
(70,291,o),
(134,335,cs),
(199,380,o),
(371,352,o),
(474,300,cs),
(480,297,o),
(485,295,o),
(490,294,c),
(490,291,o),
(490,289,o),
(489,287,cs)
);
}
);
width = 962;
}
);
note = five;
unicode = 53;
},
{
glyphname = six;
layers = (
{
layerId = m01;
shapes = (
{
closed = 1;
nodes = (
(434,0,o),
(474,5,o),
(514,16,cs),
(626,47,o),
(714,116,o),
(764,211,cs),
(806,292,o),
(815,363,o),
(790,421,cs),
(758,497,o),
(678,526,o),
(654,533,cs),
(613,545,o),
(479,575,o),
(353,495,c),
(373,542,o),
(422,591,o),
(510,619,cs),
(618,654,o),
(693,693,o),
(737,739,cs),
(756,757,l),
(732,769,ls),
(594,836,o),
(247,816,o),
(104,542,cs),
(0,343,o),
(31,153,o),
(183,58,cs),
(245,20,o),
(319,0,o),
(395,0,cs)
);
},
{
closed = 1;
nodes = (
(613,764,o),
(656,758,o),
(690,746,c),
(648,712,o),
(584,686,o),
(498,654,cs),
(281,573,o),
(300,407,o),
(300,407,c),
(334,436,ls),
(457,541,o),
(602,510,o),
(644,497,cs),
(663,492,o),
(730,468,o),
(756,407,cs),
(776,359,o),
(768,299,o),
(731,228,cs),
(686,142,o),
(606,80,o),
(504,52,cs),
(400,23,o),
(287,37,o),
(203,90,cs),
(96,156,o),
(22,305,o),
(137,525,cs),
(228,698,o),
(417,764,o),
(566,764,cs)
);
},
{
closed = 1;
nodes = (
(440,273,o),
(451,276,o),
(462,281,cs),
(495,296,o),
(519,331,o),
(519,362,cs),
(519,383,o),
(507,401,o),
(486,411,cs),
(464,421,o),
(430,418,o),
(398,404,cs),
(361,388,o),
(319,339,o),
(303,274,c),
(356,315,l),
(361,306,o),
(368,297,o),
(377,290,cs),
(391,279,o),
(410,273,o),
(428,273,cs)
);
},
{
closed = 1;
nodes = (
(393,360,o),
(402,366,o),
(413,370,cs),
(438,381,o),
(461,381,o),
(471,377,cs),
(481,372,o),
(482,366,o),
(482,362,cs),
(482,346,o),
(465,323,o),
(446,314,cs),
(431,307,o),
(412,310,o),
(399,320,cs),
(391,326,o),
(383,336,o),
(385,353,c)
);
}
);
width = 865;
}
);
note = six;
unicode = 54;
},
{
glyphname = seven;
layers = (
{
layerId = m01;
shapes = (
{
closed = 1;
nodes = (
(281,0,o),
(296,1,o),
(310,4,cs),
(410,21,o),
(554,118,o),
(597,223,cs),
(615,265,l),
(573,247,ls),
(539,233,o),
(499,233,o),
(466,248,cs),
(443,258,o),
(427,274,o),
(421,291,cs),
(395,372,o),
(501,486,o),
(828,728,cs),
(850,744,l),
(827,759,ls),
(706,835,o),
(525,823,o),
(365,812,cs),
(245,803,o),
(131,796,o),
(64,826,cs),
(43,835,l),
(38,813,ls),
(16,717,o),
(38,601,o),
(136,560,cs),
(221,524,o),
(291,540,o),
(334,559,c),
(163,454,o),
(10,306,o),
(43,160,cs),
(69,39,o),
(177,0,o),
(264,0,cs)
);
},
{
closed = 1;
nodes = (
(0,359,o),
(523,665,o),
(578,648,c),
(528,690,o),
(412,652,o),
(349,609,cs),
(322,591,o),
(248,553,o),
(150,594,cs),
(101,614,o),
(53,676,o),
(70,784,c),
(146,760,o),
(254,767,o),
(367,775,cs),
(511,785,o),
(672,796,o),
(784,741,c),
(485,518,o),
(349,391,o),
(386,280,cs),
(395,252,o),
(418,229,o),
(450,214,cs),
(479,201,o),
(512,197,o),
(544,201,c),
(491,123,o),
(381,54,o),
(304,40,cs),
(228,27,o),
(125,56,o),
(79,168,cs)
);
}
);
width = 900;
}
);
note = seven;
unicode = 55;
},
{
glyphname = eight;
layers = (
{
layerId = m01;
shapes = (
{
closed = 1;
nodes = (
(748,753,o),
(737,783,o),
(712,806,cs),
(641,873,o),
(435,864,o),
(378,829,cs),
(319,792,o),
(275,705,o),
(338,576,c),
(172,504,o),
(75,432,o),
(42,357,cs),
(4,269,o),
(0,191,o),
(32,129,cs),
(62,71,o),
(122,30,o),
(207,12,cs),
(248,4,o),
(288,0,o),
(327,0,cs),
(438,0,o),
(534,31,o),
(584,72,cs),
(648,122,o),
(683,188,o),
(687,262,cs),
(692,352,o),
(658,434,o),
(570,526,c),
(679,583,o),
(733,660,o),
(742,721,cs)
);
},
{
closed = 1;
nodes = (
(485,527,o),
(515,522,o),
(535,509,c),
(621,422,o),
(654,346,o),
(650,264,cs),
(647,201,o),
(616,145,o),
(561,100,cs),
(500,51,o),
(361,18,o),
(215,49,cs),
(140,64,o),
(90,97,o),
(65,146,cs),
(38,197,o),
(42,265,o),
(76,342,cs),
(106,410,o),
(205,480,o),
(371,550,cs),
(390,558,l),
(390,558,o),
(350,607,o),
(371,588,cs),
(375,585,l),
(318,696,o),
(350,769,o),
(397,797,cs),
(419,811,o),
(471,819,o),
(526,819,cs),
(589,819,o),
(656,808,o),
(687,779,cs),
(703,764,o),
(709,747,o),
(706,727,cs),
(702,701,o),
(689,616,o),
(485,527,c)
);
},
{
closed = 1;
nodes = (
(551,722,o),
(500,722,o),
(476,706,cs),
(451,688,o),
(443,641,o),
(458,609,cs),
(459,607,l),
(455,599,o),
(450,590,o),
(444,581,c),
(467,591,l),
(484,600,l),
(503,611,ls),
(555,637,o),
(577,651,o),
(584,666,cs),
(589,681,o),
(585,695,o),
(573,704,cs)
);
},
{
closed = 1;
nodes = (
(479,644,o),
(475,665,o),
(491,677,cs),
(508,688,o),
(542,687,o),
(558,674,c),
(543,661,o),
(503,641,o),
(482,630,c)
);
},
{
closed = 1;
nodes = (
(380,576,l),
(390,558,l),
(419,573,l),
(419,573,o),
(396,570,o),
(375,585,c)
);
},
{
closed = 1;
nodes = (
(390,475,o),
(299,409,o),
(288,351,cs),
(284,329,o),
(290,307,o),
(305,288,cs),
(323,267,o),
(350,254,o),
(378,254,cs),
(381,254,o),
(384,254,o),
(387,255,c),
(420,257,o),
(450,275,o),
(464,300,cs),
(492,348,o),
(425,470,o),
(425,470,c),
(422,481,o),
(426,491,o),
(433,500,c)
);
},
{
closed = 1;
nodes = (
(424,304,o),
(404,293,o),
(384,292,cs),
(372,291,o),
(350,292,o),
(334,312,cs),
(326,322,o),
(323,333,o),
(325,345,cs),
(330,371,o),
(360,404,o),
(407,436,c),
(433,392,o),
(445,340,o),
(432,318,cs)
);
}
);
width = 798;
}
);
note = eight;
unicode = 56;
},
{
glyphname = nine;
layers = (
{
layerId = m01;
shapes = (
{
closed = 1;
nodes = (
(484,0,o),
(600,35,o),
(694,137,cs),
(767,215,o),
(813,322,o),
(822,430,cs),
(832,546,o),
(798,646,o),
(727,713,cs),
(639,796,o),
(503,834,o),
(372,813,cs),
(256,795,o),
(160,732,o),
(110,640,cs),
(44,518,o),
(98,392,o),
(165,321,cs),
(210,273,o),
(310,249,o),
(390,252,c),
(348,225,o),
(297,209,o),
(247,215,cs),
(171,224,o),
(69,192,o),
(16,142,cs),
(0,127,l),
(17,114,ls),
(86,62,o),
(225,0,o),
(372,0,cs)
);
},
{
closed = 1;
nodes = (
(108,164,o),
(178,190,o),
(236,185,cs),
(311,179,o),
(402,199,o),
(454,258,cs),
(467,274,o),
(481,314,o),
(463,325,c),
(457,315,o),
(450,298,o),
(429,283,c),
(359,263,o),
(240,296,o),
(192,346,cs),
(179,360,o),
(68,485,o),
(143,622,cs),
(188,705,o),
(271,760,o),
(378,777,cs),
(497,796,o),
(622,761,o),
(701,687,cs),
(839,557,o),
(797,303,o),
(667,162,cs),
(476,-44,o),
(185,47,o),
(59,130,c)
);
},
{
closed = 1;
nodes = (
(518,497,o),
(507,511,o),
(491,519,cs),
(474,527,o),
(451,525,o),
(432,514,cs),
(407,499,o),
(393,473,o),
(391,442,cs),
(390,407,o),
(404,386,o),
(416,374,cs),
(431,359,o),
(453,351,o),
(477,351,cs),
(480,351,o),
(483,352,o),
(486,352,cs),
(494,353,l),
(514,353,o),
(550,367,o),
(573,404,c),
(556,395,o),
(534,391,o),
(515,389,c),
(526,418,o),
(530,451,o),
(523,477,cs)
);
},
{
closed = 1;
nodes = (
(471,487,o),
(473,487,o),
(475,486,cs),
(481,483,o),
(485,477,o),
(488,467,cs),
(493,445,o),
(487,412,o),
(474,388,c),
(461,389,o),
(449,393,o),
(441,401,cs),
(432,410,o),
(428,423,o),
(428,440,cs),
(429,459,o),
(437,474,o),
(451,482,cs),
(457,486,o),
(463,487,o),
(468,487,cs)
);
}
